<svg width="245" height="45" viewBox="0 0 245 45" fill="none" xmlns="http://www.w3.org/2000/svg">
<path fill-rule="evenodd" clip-rule="evenodd" d="M148.75 4.5C144.375 4.5 144.375 9 144.375 9H148.75C148.75 9 148.75 27 148.75 36C148.75 45 157.5 45 157.5 45H161.875V40.5H157.5C157.5 40.5 153.125 40.5 153.125 36C153.125 31.5 153.125 9 153.125 9C153.125 9 157.5 9 157.5 4.5M148.75 4.5V0H153.125V4.5H157.5M0 45C0 45 8.75 45 8.75 36C8.75 27 8.67843 17.8773 8.75 18L21.875 40.5C24.2019 44.4889 28.7514 45 33.2743 45H35V0C35 0 26.25 0 26.25 9C26.25 18 26.25 31.5 26.25 31.5L12.6464 6.01155C10.4699 1.93347 6.24855 0 1.72568 0H0V45ZM196.875 45V18H201.25C201.25 26.5249 200.148 18 210 18C218.75 18 214.375 18 214.375 18V22.5H210C210 22.5 201.25 22.5 201.25 31.5C201.25 40.5 201.25 45 201.25 45H196.875ZM231.875 22.5C236.708 22.5 240.625 26.5294 240.625 31.5H223.125C223.125 26.5294 227.042 22.5 231.875 22.5ZM231.875 18C239.124 18 245 24.0441 245 31.5C245 33.0781 244.736 34.5924 244.252 36H240.625H239.454H224.296C225.809 38.6901 228.636 40.5 231.875 40.5H241.657C239.254 43.2617 235.762 45 231.875 45C224.626 45 218.75 38.9559 218.75 31.5C218.75 24.0441 224.626 18 231.875 18ZM179.375 18C186.624 18 192.5 24.0441 192.5 31.5C192.5 38.9559 186.624 45 179.375 45C172.126 45 166.25 38.9559 166.25 31.5C166.25 24.0441 172.126 18 179.375 18ZM179.375 22.5C184.208 22.5 188.125 26.5294 188.125 31.5C188.125 36.4706 184.208 40.5 179.375 40.5C174.542 40.5 170.625 36.4706 170.625 31.5C170.625 26.5294 174.542 22.5 179.375 22.5ZM101.372 9C100.888 10.4076 100.625 11.9219 100.625 13.5C100.625 20.9559 106.501 27 113.75 27C114.004 27 114.256 26.9923 114.506 26.9776L114.498 27H126.875C129.291 27 131.25 29.0147 131.25 31.5C131.25 33.9853 129.291 36 126.875 36H114.498H109.375C104.543 36 100.625 40.0295 100.625 45H126.875C132.589 45 137.45 41.2436 139.252 36.001L139.253 36C139.737 34.5922 140 33.0781 140 31.5C140 24.0441 134.124 18 126.875 18C126.621 18 126.369 18.0077 126.119 18.0224L126.127 18H113.75C111.334 18 109.375 15.9853 109.375 13.5C109.375 11.0147 111.334 9 113.75 9H126.127H131.25C136.082 9 140 4.97052 140 0H113.75C108.036 0 103.175 3.75634 101.373 8.99902L101.372 9ZM83.125 18C90.3738 18 96.25 24.0441 96.25 31.5C96.25 38.9559 90.3738 45 83.125 45C75.8762 45 70 38.9559 70 31.5C70 24.0441 75.8762 18 83.125 18ZM83.125 22.5C87.9575 22.5 91.875 26.5294 91.875 31.5C91.875 36.4706 87.9575 40.5 83.125 40.5C78.2925 40.5 74.375 36.4706 74.375 31.5C74.375 26.5294 78.2925 22.5 83.125 22.5ZM52.5 22.5C57.3325 22.5 61.25 26.5294 61.25 31.5H43.75C43.75 26.5294 47.6675 22.5 52.5 22.5ZM52.5 18C59.7488 18 65.625 24.0441 65.625 31.5C65.625 33.0781 65.3609 34.5924 64.8771 36H61.25H60.0792H44.9208C46.4337 38.6901 49.2613 40.5 52.5 40.5H62.2819C59.8789 43.2617 56.3869 45 52.5 45C45.2512 45 39.375 38.9559 39.375 31.5C39.375 24.0441 45.2512 18 52.5 18Z" fill="white"/>
</svg>
