<svg width="26" height="25" viewBox="0 0 26 25" fill="none" xmlns="http://www.w3.org/2000/svg">
<path fill-rule="evenodd" clip-rule="evenodd" d="M15.7299 0.0163063C17.1065 0.293599 18.403 0.789585 19.5812 1.4659V18.9488C21.1879 17.2827 22.1776 15.008 22.1776 12.4998C22.1776 12.4998 22.1862 8.34955 24.9908 7.54066C25.6406 9.06485 26 10.7407 26 12.4998C26 17.2146 23.4181 21.3303 19.5812 23.5328V23.5337C18.378 24.2244 17.0512 24.7262 15.6421 25L10.5949 11.3094V24.9833C9.21831 24.706 7.92186 24.2101 6.74363 23.5337V5.86656C4.94653 7.55518 3.82236 9.96302 3.82236 12.6361C3.82236 12.6361 3.81379 16.7863 1.00919 17.5952C0.359348 16.071 0 14.3952 0 12.6361C0 7.38667 3.20025 2.87952 7.77012 0.929202L7.77059 0.936539C8.68729 0.515148 9.66254 0.197957 10.6809 0L15.7299 14.024V0.0163063Z" fill="url(#paint0_linear_27_88)"/>
<defs>
<linearGradient id="paint0_linear_27_88" x1="2.41493" y1="3.48885" x2="24.0383" y2="19.1514" gradientUnits="userSpaceOnUse">
<stop stop-color="#FFD500"/>
<stop offset="1" stop-color="#FF007A"/>
</linearGradient>
</defs>
</svg>
